<svg width="324" height="299" viewBox="0 0 324 299" fill="none" xmlns="http://www.w3.org/2000/svg">
<path d="M151.821 79.2874C144.043 79.2874 135.897 80.2292 128.439 77.7433C123.839 76.21 116.086 71.5305 116.086 65.8867C116.086 60.8272 129.832 61.418 133.733 60.4271C141.088 58.5593 152.059 58.3536 159.542 59.6551C163.256 60.301 167.467 61.1524 169.193 64.9492C169.925 66.5608 172.011 75.3168 169.193 75.3168C161.591 75.3168 154.458 79.2874 146.858 79.2874" stroke="black" stroke-width="2" stroke-linecap="round"/>
<path d="M116.086 70.3536C103.66 70.3536 91.2332 70.3536 78.8068 70.3536C67.4183 70.3536 57.2524 69.4167 50.0752 79.7837C44.5039 87.8311 45.9057 97.155 57.52 97.155C72.5576 97.155 81.378 85.4338 93.2553 77.7984C100.062 73.4227 113.314 69.0157 121.049 73.1109C123.782 74.5576 121.285 79.384 121.049 81.2727C120.635 84.5912 114.783 86.8957 112.557 88.7175C104.811 95.0547 92.1855 98.3033 88.0715 108.074C86.4318 111.968 83.9672 131.361 92.7038 128.865C95.7915 127.982 99.2888 120.565 100.7 118.056C103.579 112.938 106.329 107.312 107.924 101.567C109.164 97.1055 118.443 77.5362 126.509 83.8094C130.309 86.7647 133.665 89.6542 137.373 92.6881C141.873 96.3702 142.909 104.5 148.071 108.074C155.449 113.182 161.398 119.986 171.178 119.986C176.127 119.986 176.637 120.12 176.637 115.023C176.637 109.984 173.959 107.574 170.682 104.104C166.407 99.5773 148.586 90.859 150.884 82.8168C151.791 79.6419 168.103 84.2622 170.185 84.8021C177.765 86.7673 187.491 90.5405 193.292 95.9418C199.678 101.888 206.276 105.443 214.579 107.854C225.692 111.08 231.657 104.112 238.071 96.2727C248.301 83.77 219.903 78.2465 213.365 76.3094C206.495 74.2739 197.97 74.1311 191.748 70.3536C190.004 69.2949 188.165 69.6815 186.785 68.1477C186.151 67.4437 184.521 63.918 186.123 63.4602C191.296 61.9821 197.61 64.1703 202.943 63.3499C208.974 62.422 214.233 58.794 218.329 54.4713C223.755 48.7431 226.56 36.5133 223.292 29.1588C220.208 22.2205 205.162 36.3082 201.674 38.5889C192.67 44.4764 180.624 49.508 169.689 49.508C161.465 49.508 162.74 36.9593 162.74 30.6478C162.74 20.1882 173.055 32.9435 175.149 34.6183C181.04 39.3318 174.239 50.2433 169.689 52.2654C159.449 56.8164 144.637 46.0857 142.832 36.1625C142.192 32.6405 140.005 28.7428 138.421 25.5742C136.729 22.1909 131.605 11.0654 127.005 10.7949C122.216 10.5131 122.042 11.2026 122.042 15.7581C122.042 18.989 124.636 24.0768 126.013 27.1735C128.249 32.2049 133.02 43.5763 127.777 48.2948C124.326 51.4014 117.385 53.5038 113.108 54.6918C104.109 57.1917 95.8639 59.4345 86.3619 59.4345C77.4051 59.4345 71.0168 59.7838 63.9171 53.9749C59.4212 50.2965 58.5799 44.7984 65.6818 44.5448C77.9149 44.1079 88.4616 41.0184 98.77 48.5154C105.888 53.6925 113.547 57.6686 121.049 61.4198" stroke="#FFDEDE" stroke-width="2" stroke-linecap="round"/>
<path d="M151.821 79.2874C144.043 79.2874 135.897 80.2292 128.439 77.7433C123.839 76.21 116.086 71.5305 116.086 65.8867C116.086 60.8272 129.832 61.418 133.733 60.4271C141.088 58.5594 152.059 58.3537 159.542 59.6551C163.256 60.301 167.467 61.1524 169.193 64.9492C169.925 66.5608 172.011 75.3168 169.193 75.3168C161.591 75.3168 154.458 79.2874 146.858 79.2874" stroke="#FFD099" stroke-width="2" stroke-linecap="round"/>
<path d="M146.662 71.5565C138.884 71.5565 130.738 72.4983 123.28 70.0123C118.68 68.479 110.927 63.7996 110.927 58.1557C110.927 53.0963 124.672 53.6871 128.574 52.6962C135.929 50.8284 146.9 50.6227 154.383 51.9241C158.097 52.57 162.308 53.4214 164.034 57.2182C164.766 58.8298 166.852 67.5859 164.034 67.5859C156.432 67.5859 149.299 71.5565 141.699 71.5565" stroke="#FCB766" stroke-width="2" stroke-linecap="round"/>
<path d="M116.086 70.3536C103.66 70.3536 91.2332 70.3536 78.8068 70.3536C67.4183 70.3536 57.2524 69.4167 50.0752 79.7837C44.5039 87.8311 45.9057 97.155 57.52 97.155C72.5576 97.155 81.378 85.4338 93.2553 77.7984C100.062 73.4227 113.314 69.0157 121.049 73.1109C123.782 74.5576 121.285 79.384 121.049 81.2727C120.635 84.5912 114.783 86.8957 112.557 88.7175C104.811 95.0547 92.1855 98.3033 88.0715 108.074C86.4318 111.968 83.9672 131.361 92.7038 128.865C95.7915 127.982 99.2888 120.565 100.7 118.056C103.579 112.938 106.329 107.312 107.924 101.567C109.164 97.1055 118.443 77.5362 126.509 83.8094C130.309 86.7647 133.665 89.6542 137.373 92.6881C141.873 96.3702 142.909 104.5 148.071 108.074C155.449 113.182 161.398 119.986 171.178 119.986C176.127 119.986 176.637 120.12 176.637 115.023C176.637 109.984 173.959 107.574 170.682 104.104C166.407 99.5773 148.586 90.859 150.884 82.8168C151.791 79.6419 168.103 84.2622 170.185 84.8021C177.765 86.7673 187.491 90.5405 193.292 95.9418C199.678 101.888 206.276 105.443 214.579 107.854C225.692 111.08 231.657 104.112 238.071 96.2727C248.301 83.77 219.903 78.2465 213.365 76.3094C206.495 74.2739 197.97 74.1311 191.748 70.3536C190.004 69.2949 188.165 69.6815 186.785 68.1477C186.151 67.4437 184.521 63.918 186.123 63.4602C191.296 61.9821 197.61 64.1703 202.943 63.3499C208.974 62.422 214.233 58.794 218.329 54.4713C223.755 48.7431 226.56 36.5133 223.292 29.1588C220.208 22.2205 205.162 36.3082 201.674 38.5889C192.67 44.4764 180.624 49.508 169.689 49.508C161.465 49.508 162.74 36.9593 162.74 30.6478C162.74 20.1882 173.055 32.9435 175.149 34.6183C181.04 39.3318 174.239 50.2433 169.689 52.2654C159.449 56.8164 144.637 46.0857 142.832 36.1625C142.192 32.6405 140.005 28.7428 138.421 25.5742C136.729 22.1909 131.605 11.0654 127.005 10.7949C122.216 10.5131 122.042 11.2026 122.042 15.7581C122.042 18.989 124.636 24.0768 126.013 27.1735C128.249 32.2049 133.02 43.5763 127.777 48.2948C124.326 51.4014 117.385 53.5038 113.108 54.6918C104.109 57.1917 95.8639 59.4345 86.3619 59.4345C77.4051 59.4345 71.0168 59.7838 63.9171 53.9749C59.4212 50.2965 58.5799 44.7984 65.6818 44.5448C77.9149 44.1079 88.4616 41.0184 98.77 48.5154C105.888 53.6925 113.547 57.6686 121.049 61.4198" stroke="#FFDEDE" stroke-width="2" stroke-linecap="round"/>
<path d="M121.652 60.6132C109.226 60.6132 96.7991 60.6132 84.3727 60.6132C72.9842 60.6132 62.8183 59.6763 55.6411 70.0433C50.0698 78.0908 51.4717 87.4146 63.086 87.4146C78.1236 87.4146 86.944 75.6934 98.8212 68.058C105.628 63.6823 118.88 59.2753 126.615 63.3706C129.348 64.8172 126.851 69.6437 126.615 71.5323C126.2 74.8508 120.349 77.1554 118.123 78.9771C110.377 85.3144 97.7514 88.563 93.6374 98.3337C91.9978 102.228 89.5331 121.62 98.2697 119.124C101.357 118.242 104.855 110.824 106.266 108.315C109.145 103.198 111.895 97.5712 113.49 91.8264C114.73 87.3652 124.009 67.7958 132.075 74.0691C135.874 77.0243 139.231 79.9139 142.939 82.9477C147.439 86.6299 148.475 94.7596 153.637 98.3337C161.015 103.441 166.964 110.245 176.744 110.245C181.693 110.245 182.203 110.379 182.203 105.282C182.203 100.244 179.525 97.8332 176.248 94.3632C171.973 89.837 154.152 81.1186 156.45 73.0764C157.357 69.9016 173.669 74.5219 175.751 75.0617C183.331 77.0269 193.056 80.8001 198.858 86.2014C205.244 92.1472 211.842 95.7027 220.145 98.1131C231.258 101.34 237.223 94.3718 243.637 86.5323C253.867 74.0296 225.469 68.5061 218.931 66.5691C212.061 64.5335 203.536 64.3908 197.314 60.6132C195.57 59.5545 193.731 59.9411 192.35 58.4073C191.717 57.7033 190.087 54.1776 191.689 53.7198C196.862 52.2417 203.176 54.4299 208.509 53.6095C214.54 52.6816 219.799 49.0536 223.895 44.7309C229.321 39.0027 232.126 26.7729 228.858 19.4184C225.774 12.4802 210.728 26.5679 207.24 28.8486C198.236 34.736 186.19 39.7677 175.255 39.7677C167.031 39.7677 168.306 27.2189 168.306 20.9074C168.306 10.4479 178.621 23.2031 180.714 24.878C186.606 29.5915 179.805 40.5029 175.255 42.525C165.015 47.076 150.203 36.3453 148.398 26.4221C147.758 22.9001 145.571 19.0024 143.987 15.8339C142.295 12.4505 137.171 1.32505 132.571 1.05448C127.782 0.772777 127.608 1.46226 127.608 6.01771C127.608 9.24868 130.202 14.3365 131.578 17.4331C133.815 22.4645 138.586 33.8359 133.343 38.5544C129.891 41.661 122.951 43.7634 118.674 44.9515C109.675 47.4513 101.43 49.6941 91.9278 49.6941C82.9711 49.6941 76.5827 50.0434 69.483 44.2346C64.9871 40.5561 64.1459 35.0581 71.2477 34.8044C83.4809 34.3675 94.0276 31.278 104.336 38.775C111.454 43.9521 119.113 47.9282 126.615 51.6794" stroke="#FDBDBD" stroke-width="2" stroke-linecap="round"/>
<path d="M125.88 183.763C126.917 174.425 147.093 171.878 154.273 171.878C168.696 171.878 183.356 173.27 197.192 169.53C215.673 164.535 235.49 142.846 235.49 123.016" stroke="#92AC8F" stroke-width="2" stroke-linecap="round"/>
<path d="M124.842 183.374C124.842 166.3 140.607 151.041 155.292 145.058C168.008 139.878 182.038 139.901 195.585 139.126C208.998 138.36 226.745 134.588 233.198 121.682" stroke="#92AC8F" stroke-width="2" stroke-linecap="round"/>
<path d="M234.78 121.682C234.78 114.703 243.737 92.9985 253.762 101.909C256.354 104.213 260.912 108.956 259.123 112.982C257.95 115.621 251.375 118.489 249.807 115.355" stroke="#92AC8F" stroke-width="2" stroke-linecap="round"/>
<path d="M124.842 178.629C125.117 173.944 131.393 171.416 134.509 168.522C137.031 166.18 142.389 163.612 145.801 162.854C152.516 161.362 157.701 160.414 163.597 156.483" stroke="#92AC8F" stroke-width="2" stroke-linecap="round"/>
<path d="M125.5 204.5C125.5 182.806 121.084 159.623 121.084 137.89C121.084 120.957 122.072 107.622 129.136 92.0082C131.19 87.4674 134.354 81.2925 138.952 78.9935" stroke="#EAD7BB" stroke-width="2" stroke-linecap="round"/>
<path d="M125.726 204.193C125.726 230.656 113.823 265.18 88.0785 277.637C87.0292 278.144 71.3662 283.588 73.347 279.131C75.0213 275.364 83.9881 273.127 87.2957 272.086C97.9693 268.725 109.988 268.704 121.1 268.314C138.806 267.693 155.097 273.564 172.126 277.494C196.925 283.217 222.296 285.167 247.706 284.896C276.256 284.59 312.937 275.374 323 245.185" stroke="#EAD7BB" stroke-width="2" stroke-linecap="round"/>
<path d="M117.5 216C117.5 194.306 112.918 172.075 112.918 150.343C112.918 133.41 113.906 120.075 120.97 104.461C123.024 99.9203 126.188 93.7454 130.786 91.4463" stroke="#D5BE9C" stroke-width="2" stroke-linecap="round"/>
<path d="M117.56 216.645C117.56 243.109 105.657 277.632 79.9127 290.09C78.8634 290.597 63.2004 296.041 65.1812 291.584C66.8554 287.817 75.8222 285.58 79.1298 284.539C89.8034 281.178 101.822 281.157 112.934 280.767C130.64 280.145 146.931 286.017 163.961 289.947C188.759 295.67 214.13 297.62 239.54 297.349C268.09 297.043 304.771 287.827 314.834 257.637" stroke="#D5BE9C" stroke-width="2" stroke-linecap="round"/>
<path d="M126.73 192.674C127.767 183.336 147.943 180.789 155.123 180.789C169.546 180.789 184.206 182.18 198.042 178.441C216.523 173.446 236.34 151.756 236.34 131.926" stroke="#AFC8AD" stroke-width="2" stroke-linecap="round"/>
<path d="M125.692 192.285C125.692 175.21 141.457 159.952 156.142 153.969C168.857 148.789 182.888 148.811 196.435 148.037C209.848 147.271 227.595 143.499 234.048 130.593" stroke="#AFC8AD" stroke-width="2" stroke-linecap="round"/>
<path d="M235.63 130.593C235.63 123.613 244.587 101.909 254.612 110.82C257.204 113.124 261.762 117.867 259.973 121.893C258.8 124.532 252.224 127.4 250.657 124.266" stroke="#AFC8AD" stroke-width="2" stroke-linecap="round"/>
<path d="M125.692 187.539C125.967 182.855 132.243 180.326 135.359 177.433C137.881 175.091 143.239 172.523 146.651 171.765C153.366 170.273 158.551 169.324 164.447 165.394" stroke="#AFC8AD" stroke-width="2" stroke-linecap="round"/>
<path d="M125.409 175.506C97.9756 175.506 61.2571 184.977 40.9637 161.64C30.8163 149.97 30.3255 133.502 30.3255 118.72C30.3255 106.822 32.1322 114.561 36.1948 120.334C50.1047 140.101 72.6216 141.324 93.5677 145.132C110.697 148.247 114.217 160.039 122.768 172.865" stroke="#AFC8AD" stroke-width="2" stroke-linecap="round"/>
<path d="M29.1995 113.193C29.1995 105.437 7.05376 96.6766 7.05376 108.447C7.05376 111.981 8.59029 114.263 10.3932 117.147C12.1795 120.005 16.5448 117.459 16.5448 114.775" stroke="#AFC8AD" stroke-width="2" stroke-linecap="round"/>
<path d="M52.9271 150.366C56.2225 150.56 59.1095 153.101 62.4182 153.574C66.0091 154.087 69.3145 155.903 73.0956 155.903C78.9689 155.903 84.8422 155.903 90.7156 155.903C95.7837 155.903 103.506 156.232 107.896 158.671C110.583 160.163 116.461 163.542 117.783 166.184" stroke="#AFC8AD" stroke-width="2" stroke-linecap="round"/>
<path d="M119.355 164.243C91.9219 164.243 55.2034 173.714 34.9099 150.376C24.7626 138.707 24.2717 122.239 24.2717 107.457C24.2717 95.5581 26.0784 103.298 30.1411 109.071C44.0509 128.837 66.5679 130.06 87.514 133.869C104.644 136.983 108.164 148.776 116.714 161.602" stroke="#92AC8F" stroke-width="2" stroke-linecap="round"/>
<path d="M23.1458 101.929C23.1458 94.1737 1 85.4131 1 97.1837C1 100.718 2.53653 102.999 4.33944 105.884C6.12577 108.742 10.491 106.196 10.491 103.511" stroke="#92AC8F" stroke-width="2" stroke-linecap="round"/>
<path d="M46.8734 139.103C50.1688 139.296 53.0558 141.838 56.3644 142.31C59.9553 142.823 63.2607 144.639 67.0419 144.639C72.9152 144.639 78.7885 144.639 84.6618 144.639C89.7299 144.639 97.4519 144.968 101.842 147.407C104.529 148.9 110.408 152.279 111.729 154.921" stroke="#92AC8F" stroke-width="2" stroke-linecap="round"/>
</svg>
